<?xml version="1.0" standalone="no"?>
<!DOCTYPE svg PUBLIC "-//W3C//DTD SVG 20010904//EN"
 "http://www.w3.org/TR/2001/REC-SVG-20010904/DTD/svg10.dtd">
<svg version="1.0" xmlns="http://www.w3.org/2000/svg"
 width="252.000000pt" height="252.000000pt" viewBox="0 0 252.000000 252.000000"
 preserveAspectRatio="xMidYMid meet">
<metadata>
Created by potrace 1.11, written by Peter Selinger 2001-2013
</metadata>
<g transform="translate(0.000000,252.000000) scale(0.100000,-0.100000)"
fill="#000000" stroke="none">
<path d="M13 2513 c9 -2 15 -9 11 -14 -3 -5 -10 -7 -15 -4 -5 4 -9 -16 -9 -46
0 -47 1 -51 14 -34 13 18 14 18 21 -6 l9 -24 6 25 c4 14 2 28 -4 32 -6 4 -1 6
12 5 12 0 22 -6 22 -11 0 -6 5 -5 12 2 8 8 8 15 -2 27 -11 13 -9 15 11 16 14
0 18 3 9 6 -42 14 -41 17 5 23 42 6 37 7 -35 7 -47 0 -77 -1 -67 -4z"/>
<path d="M305 2483 c9 -21 30 -53 47 -70 38 -39 73 -42 133 -13 22 11 48 19
58 20 10 0 16 4 13 9 -3 5 16 14 42 21 26 7 52 17 58 21 6 5 36 11 67 15 31 4
62 13 68 20 8 10 -37 13 -246 14 l-256 1 16 -38z"/>
<path d="M1028 2513 c7 -3 16 -2 19 1 4 3 -2 6 -13 5 -11 0 -14 -3 -6 -6z"/>
<path d="M1110 2511 c0 -5 9 -7 20 -4 11 3 20 7 20 9 0 2 -9 4 -20 4 -11 0
-20 -4 -20 -9z"/>
<path d="M1165 2510 c3 -5 10 -10 16 -10 5 0 9 5 9 10 0 6 -7 10 -16 10 -8 0
-12 -4 -9 -10z"/>
<path d="M1268 2513 c7 -3 16 -2 19 1 4 3 -2 6 -13 5 -11 0 -14 -3 -6 -6z"/>
<path d="M1338 2513 c6 -2 18 -2 25 0 6 3 1 5 -13 5 -14 0 -19 -2 -12 -5z"/>
<path d="M1421 2503 c-1 -18 4 -23 22 -22 15 1 17 3 5 6 -9 2 -19 12 -21 21
-3 12 -5 10 -6 -5z"/>
<path d="M1929 2474 l-12 -46 -46 6 c-92 12 -131 14 -131 5 0 -5 14 -9 30 -9
17 0 30 -4 30 -10 0 -5 -5 -10 -10 -10 -10 0 27 -37 65 -65 18 -13 18 -14 3
-15 -10 0 -18 5 -18 10 0 6 -5 10 -11 10 -8 0 -7 -6 2 -17 11 -13 11 -17 2
-20 -26 -9 -12 -22 20 -19 17 2 22 1 10 -1 -13 -2 -23 -9 -23 -14 0 -11 -70
-12 -89 0 -15 9 -81 -7 -81 -21 0 -4 6 -7 13 -5 6 1 11 -4 9 -12 -4 -18 15
-30 48 -32 23 -1 23 -2 -5 -9 l-30 -8 30 -1 30 -2 -25 -11 c-24 -11 -24 -12
15 -18 l40 -5 -30 -12 -30 -11 29 -1 c23 -1 27 -5 23 -20 -3 -14 1 -21 17 -25
31 -8 89 -53 75 -58 -20 -7 0 -28 27 -28 13 0 24 -5 24 -11 0 -7 -14 -8 -41
-4 -29 5 -40 4 -35 -4 4 -6 18 -11 30 -11 29 0 49 -22 40 -44 -3 -9 -1 -16 6
-16 6 0 8 5 5 10 -8 13 35 13 55 0 12 -7 8 -10 -14 -10 -28 0 -28 -1 -11 -14
11 -8 16 -20 12 -29 -3 -9 -2 -19 4 -23 6 -4 6 -11 -2 -20 -9 -11 -8 -14 7
-15 12 0 14 -3 6 -6 -9 -3 -5 -12 13 -29 19 -17 22 -24 11 -24 -9 0 -16 5 -16
11 0 5 -5 7 -11 3 -6 -3 -9 -17 -6 -30 5 -29 5 -29 -41 -1 -44 27 -189 97
-202 97 -4 0 -10 4 -12 9 -1 5 -31 13 -65 18 -52 8 -65 7 -78 -6 -13 -13 -17
-14 -24 -3 -7 11 -9 11 -14 -2 -4 -10 -13 -13 -24 -9 -15 5 -16 3 -5 -8 18
-19 15 -29 -10 -29 -18 0 -20 -2 -8 -10 12 -7 12 -12 2 -22 -9 -9 -12 -9 -12
2 0 21 -29 -21 -30 -43 0 -12 4 -16 13 -11 6 5 0 -7 -15 -25 -16 -18 -28 -38
-28 -44 0 -8 3 -7 9 1 11 18 21 -18 15 -56 -3 -15 -5 -32 -6 -39 -1 -7 -5 -10
-10 -7 -4 3 -4 13 1 22 8 15 4 17 -35 13 -24 -1 -44 -7 -44 -12 0 -5 12 -7 28
-4 15 3 21 2 14 -1 -6 -3 -9 -11 -6 -16 4 -6 -1 -17 -11 -24 -15 -11 -16 -16
-5 -29 11 -13 8 -15 -16 -16 -29 -1 -29 -1 8 -18 27 -13 35 -20 27 -28 -8 -8
-5 -15 12 -23 12 -7 32 -21 43 -31 11 -11 23 -19 27 -19 21 0 33 -109 16 -137
-13 -21 -158 -84 -239 -103 -63 -15 -108 -18 -191 -16 -96 4 -108 2 -117 -14
-16 -30 -11 -112 9 -157 19 -40 66 -77 94 -71 6 1 21 -3 32 -9 11 -6 49 -14
85 -18 91 -9 138 -23 149 -43 6 -9 11 -13 11 -8 0 4 9 -2 19 -15 l19 -24 7 26
c5 20 11 25 26 22 10 -3 19 -10 19 -17 0 -7 3 -6 8 2 6 9 11 6 19 -11 11 -24
10 -24 -80 -46 -119 -29 -184 -35 -282 -23 -44 5 -82 8 -84 6 -7 -7 33 -33 49
-34 9 0 23 -8 31 -17 23 -25 61 -57 79 -65 12 -5 12 -7 -2 -7 -19 -1 -26 -21
-8 -21 6 0 10 -4 10 -10 0 -5 -7 -10 -16 -10 -8 0 -13 -4 -9 -9 3 -5 1 -12 -5
-16 -5 -3 -10 -1 -10 6 0 10 -3 10 -12 1 -8 -8 -8 -15 1 -26 13 -16 6 -56 -10
-56 -5 0 -9 11 -9 25 0 29 -8 32 -25 8 -12 -16 -14 -13 -21 21 -6 36 -8 38
-20 21 -13 -18 -14 -18 -14 4 0 19 -3 21 -14 11 -8 -6 -12 -19 -9 -28 6 -14 5
-15 -9 -2 -9 8 -13 16 -8 18 11 4 -1 52 -14 52 -6 0 -16 10 -21 21 -6 12 -13
20 -16 18 -3 -2 -13 2 -21 9 -16 13 -47 7 -60 -12 -5 -8 -8 -7 -8 1 0 6 -8 12
-17 13 -10 0 -34 1 -53 3 -19 1 -37 -1 -40 -5 -4 -4 -23 -9 -43 -10 -31 -3
-37 -7 -37 -25 0 -16 -6 -23 -20 -23 -13 0 -18 -5 -14 -15 4 -8 1 -15 -5 -15
-6 0 -14 0 -18 0 -5 0 -9 17 -11 37 -1 21 -7 42 -12 47 -5 5 -7 0 -3 -12 3
-12 -1 -28 -10 -36 -13 -14 -17 -13 -33 11 -13 21 -14 28 -4 31 8 3 5 9 -11
18 -13 7 -18 13 -11 14 15 0 6 20 -10 20 -6 0 -9 -14 -6 -33 3 -31 3 -32 -40
-35 -26 -2 -41 1 -38 7 3 5 -3 7 -13 4 -16 -4 -18 -8 -9 -23 9 -14 9 -22 -2
-34 -7 -9 -15 -14 -18 -11 -13 13 -6 61 11 73 9 7 17 19 17 27 0 21 -21 30
-32 14 -7 -10 -11 -11 -14 -2 -3 7 -12 9 -20 6 -8 -3 -14 0 -14 6 0 6 -14 11
-31 11 -23 0 -30 -4 -27 -17 3 -21 -9 -43 -23 -43 -5 0 -9 11 -9 25 0 29 -1
29 -33 14 -19 -9 -30 -8 -49 5 -14 9 -36 15 -49 14 -21 -3 -24 1 -21 26 3 26
1 28 -12 17 -13 -11 -16 -11 -16 1 0 8 -7 15 -15 15 -13 0 -15 -47 -15 -364
l0 -363 1260 0 1260 0 0 1024 0 1023 -102 84 c-119 97 -174 139 -186 139 -4 0
-17 7 -28 15 -13 11 -14 15 -4 13 19 -3 141 41 155 56 6 6 19 16 30 22 11 6
27 29 34 50 8 21 19 42 23 45 5 3 5 14 1 25 -6 17 -5 17 10 5 13 -11 17 -11
17 -1 0 8 3 10 7 7 3 -4 -1 -15 -9 -24 -26 -31 -31 -43 -14 -37 9 3 16 11 16
17 0 6 3 7 6 4 4 -4 1 -13 -5 -21 -7 -8 -11 -23 -8 -33 4 -13 5 -12 6 6 1 19
5 23 26 19 24 -5 25 -3 25 38 l0 43 -290 1 -290 0 -11 -46z m-42 -200 c-3 -3
-12 -4 -19 -1 -8 3 -5 6 6 6 11 1 17 -2 13 -5z m68 -24 c3 -5 -1 -10 -10 -10
-9 0 -13 5 -10 10 3 6 8 10 10 10 2 0 7 -4 10 -10z m-65 -10 c11 -7 7 -10 -17
-10 -18 0 -33 5 -33 10 0 13 30 13 50 0z m95 -30 c-3 -4 -15 -6 -27 -2 -21 5
-21 6 -2 12 21 8 37 3 29 -10z m-155 -10 c0 -5 -7 -10 -16 -10 -8 0 -12 5 -9
10 3 6 10 10 16 10 5 0 9 -4 9 -10z m13 -97 c-7 -2 -21 -2 -30 0 -10 3 -4 5
12 5 17 0 24 -2 18 -5z m182 -401 c-3 -3 -11 0 -18 7 -9 10 -8 11 6 5 10 -3
15 -9 12 -12z m-555 -32 c0 -5 -2 -10 -4 -10 -3 0 -8 5 -11 10 -3 6 -1 10 4
10 6 0 11 -4 11 -10z m357 -27 c36 -23 64 -63 44 -63 -4 0 -8 -12 -9 -26 -1
-14 -6 -33 -12 -42 -8 -15 -9 -14 -10 4 0 28 -43 70 -78 77 -35 7 -87 -15
-102 -43 -7 -12 -10 -42 -8 -66 2 -24 -1 -44 -5 -44 -5 0 -21 13 -37 29 -25
24 -28 33 -21 62 10 46 24 69 58 100 34 32 47 37 98 38 28 1 54 -7 82 -26z
m-107 -103 c0 -5 -4 -10 -10 -10 -5 0 -10 5 -10 10 0 6 5 10 10 10 6 0 10 -4
10 -10z m640 -199 c0 -5 -7 -12 -16 -15 -24 -9 -28 -7 -14 9 14 17 30 20 30 6z
m-870 -581 c0 -5 -4 -10 -10 -10 -5 0 -10 5 -10 10 0 6 5 10 10 10 6 0 10 -4
10 -10z m-1170 -130 c0 -5 -2 -10 -4 -10 -3 0 -8 5 -11 10 -3 6 -1 10 4 10 6
0 11 -4 11 -10z m-178 -23 c-7 -8 -8 -18 -4 -22 4 -5 1 -5 -5 -1 -10 5 -10 11
-1 26 7 11 14 17 17 15 2 -3 -1 -11 -7 -18z m667 -13 c2 -2 1 -10 -3 -19 -5
-13 -8 -13 -26 5 -11 11 -20 23 -20 26 0 5 41 -5 49 -12z m-559 -4 c0 -5 7
-10 15 -10 8 0 15 -4 15 -10 0 -13 -17 -13 -25 0 -4 6 -10 8 -14 6 -4 -3 -8 1
-8 9 0 8 4 15 9 15 4 0 8 -4 8 -10z m63 -53 c-4 -24 -12 -39 -25 -43 -21 -6
-41 6 -20 13 6 3 12 12 12 20 0 14 31 54 37 49 1 -1 0 -19 -4 -39z m102 7 c-7
-15 -11 -34 -8 -43 4 -11 1 -10 -10 4 -13 17 -14 22 -1 36 8 8 14 21 14 28 0
7 4 10 9 6 6 -3 4 -16 -4 -31z m285 26 c0 -5 -4 -10 -10 -10 -5 0 -10 5 -10
10 0 6 5 10 10 10 6 0 10 -4 10 -10z m27 -32 c-3 -8 -6 -5 -6 6 -1 11 2 17 5
13 3 -3 4 -12 1 -19z m37 -15 c-16 -12 -16 -13 -1 -13 9 0 17 -4 17 -10 0 -5
-15 -10 -34 -10 -21 0 -36 -6 -40 -16 -3 -8 -11 -12 -17 -9 -5 4 -17 -1 -24
-11 -8 -11 -14 -14 -15 -9 0 17 57 75 74 75 9 0 24 9 34 20 11 13 18 16 21 9
2 -7 -4 -18 -15 -26z m-312 5 c-7 -7 -12 -8 -12 -2 0 6 3 14 7 17 3 4 9 5 12
2 2 -3 -1 -11 -7 -17z m105 0 c-3 -8 -6 -5 -6 6 -1 11 2 17 5 13 3 -3 4 -12 1
-19z m113 2 c0 -5 -4 -10 -10 -10 -5 0 -10 5 -10 10 0 6 5 10 10 10 6 0 10 -4
10 -10z m-165 -10 c-3 -5 -12 -10 -18 -10 -7 0 -6 4 3 10 19 12 23 12 15 0z
m370 -19 c-3 -6 -11 -11 -17 -11 -6 0 -6 6 2 15 14 17 26 13 15 -4z m305 15
c0 -3 -4 -8 -10 -11 -5 -3 -10 -1 -10 4 0 6 5 11 10 11 6 0 10 -2 10 -4z
m-570 -26 c0 -5 -4 -10 -10 -10 -5 0 -10 5 -10 10 0 6 5 10 10 10 6 0 10 -4
10 -10z m-315 -20 c3 -5 1 -10 -4 -10 -6 0 -11 5 -11 10 0 6 2 10 4 10 3 0 8
-4 11 -10z m515 -5 c0 -8 -7 -15 -15 -15 -26 0 -18 20 13 29 1 1 2 -6 2 -14z
m-83 -20 c-7 -14 -15 -25 -19 -25 -11 0 -10 7 4 30 18 28 28 25 15 -5z m-206
-1 c7 -8 21 -13 31 -11 10 3 18 1 18 -4 0 -16 -32 -23 -51 -11 -10 7 -26 12
-35 12 -13 0 -14 3 -4 15 16 19 24 19 41 -1z m612 1 c-3 -9 -8 -14 -10 -11 -3
3 -2 9 2 15 9 16 15 13 8 -4z m-708 -21 c-10 -8 -20 -12 -23 -10 -7 8 23 34
32 28 5 -3 1 -11 -9 -18z m323 -1 c-2 -9 -8 -18 -15 -20 -7 -3 -9 3 -6 16 6
25 26 28 21 4z m33 -26 c-13 -13 -15 1 -4 30 7 17 8 17 11 -1 2 -10 -1 -23 -7
-29z m-471 29 c0 -2 -7 -7 -16 -10 -8 -3 -12 -2 -9 4 6 10 25 14 25 6z m185
-42 c-25 -18 -41 -18 -25 1 6 8 9 19 5 26 -5 8 0 7 16 -1 22 -12 22 -13 4 -26z
m114 -17 c-9 -7 -14 -18 -12 -24 3 -7 0 -13 -6 -13 -6 0 -11 9 -11 20 0 11 -4
20 -10 20 -5 0 -10 5 -10 11 0 6 7 9 15 6 8 -4 17 -1 21 4 4 7 10 7 18 -1 8
-8 7 -14 -5 -23z"/>
<path d="M1715 2470 c3 -5 8 -10 11 -10 2 0 4 5 4 10 0 6 -5 10 -11 10 -5 0
-7 -4 -4 -10z"/>
<path d="M1117 2413 c-4 -3 -7 -13 -7 -22 1 -13 3 -13 11 2 11 19 8 33 -4 20z"/>
<path d="M1183 2386 c-27 -13 -29 -24 -8 -32 10 -4 15 -20 15 -46 0 -21 4 -37
8 -34 5 3 16 -8 26 -25 18 -30 61 -42 50 -14 -5 11 0 14 16 13 13 -2 28 5 37
19 13 20 13 21 -6 16 -12 -3 -21 -10 -21 -16 0 -18 -27 15 -35 43 l-7 25 21
-24 c28 -32 38 -20 18 21 -9 18 -17 27 -17 20 0 -9 -4 -10 -19 0 -10 6 -17 18
-13 26 4 12 1 12 -16 3 -28 -15 -35 -14 -28 4 3 8 4 14 3 14 -1 -1 -12 -6 -24
-13z m56 -87 c9 -27 9 -30 -4 -19 -8 7 -15 21 -15 31 0 28 7 23 19 -12z"/>
<path d="M1650 2389 c0 -5 5 -7 10 -4 6 3 10 8 10 11 0 2 -4 4 -10 4 -5 0 -10
-5 -10 -11z"/>
<path d="M31 2344 c0 -11 3 -14 6 -6 3 7 2 16 -1 19 -3 4 -6 -2 -5 -13z"/>
<path d="M1588 2353 c7 -3 16 -2 19 1 4 3 -2 6 -13 5 -11 0 -14 -3 -6 -6z"/>
<path d="M1780 2340 c0 -13 5 -20 13 -17 6 2 12 10 12 17 0 7 -6 15 -12 18 -8
2 -13 -5 -13 -18z"/>
<path d="M1 2324 c0 -11 3 -14 6 -6 3 7 2 16 -1 19 -3 4 -6 -2 -5 -13z"/>
<path d="M1690 2300 c0 -5 7 -10 15 -10 8 0 15 5 15 10 0 6 -7 10 -15 10 -8 0
-15 -4 -15 -10z"/>
<path d="M1669 2193 c-13 -16 -12 -17 4 -4 9 7 17 15 17 17 0 8 -8 3 -21 -13z"/>
<path d="M910 2083 c0 -5 -39 -10 -87 -11 -48 -1 -91 -6 -97 -12 -5 -5 -18
-10 -27 -10 -10 0 -30 -6 -46 -14 -15 -8 -59 -28 -98 -44 -38 -17 -96 -42
-128 -56 -31 -14 -60 -32 -63 -41 -3 -8 -11 -15 -18 -15 -16 -1 -83 -65 -90
-87 -3 -10 -17 -30 -30 -44 -14 -15 -23 -29 -21 -31 3 -2 0 -19 -5 -38 -6 -21
-6 -38 0 -45 6 -7 5 -16 -2 -23 -7 -7 -8 -12 -4 -12 5 0 3 -7 -4 -15 -10 -13
-8 -19 12 -38 14 -13 24 -33 23 -45 -1 -11 5 -24 13 -27 8 -3 12 -8 9 -11 -3
-4 3 -15 14 -27 10 -11 19 -27 19 -34 0 -7 7 -13 16 -13 10 0 14 -6 10 -15 -6
-16 26 -51 56 -61 20 -6 24 -20 6 -26 -6 -2 2 -18 21 -37 18 -18 36 -29 43
-25 8 5 9 2 5 -10 -6 -14 -3 -16 13 -11 16 5 19 3 13 -11 -5 -13 -3 -16 10
-11 11 4 14 2 11 -7 -4 -9 8 -15 37 -20 23 -4 50 -16 60 -27 12 -14 19 -16 24
-8 6 8 10 7 16 -2 7 -12 9 -12 9 0 0 11 3 11 15 1 8 -7 15 -9 15 -4 0 5 4 3 9
-4 14 -23 116 63 166 139 24 36 61 81 84 99 23 19 41 37 41 41 0 5 23 30 51
56 48 45 86 99 81 116 -1 4 2 7 8 7 5 0 10 10 9 23 0 12 3 54 6 92 8 89 -22
238 -61 299 -32 50 -144 127 -144 99z m-47 -310 c35 -18 90 -92 84 -115 -3
-10 -1 -16 4 -12 12 7 12 -21 0 -44 -5 -9 -15 -30 -22 -46 l-14 -29 -5 29 c-9
54 -53 94 -103 94 -30 0 -75 -35 -88 -68 -13 -33 5 -86 37 -111 l24 -19 -23
-6 c-51 -12 -113 16 -157 71 -46 58 -9 174 76 239 57 44 122 50 187 17z m-79
-194 c-3 -5 -10 -7 -15 -3 -5 3 -7 10 -3 15 3 5 10 7 15 3 5 -3 7 -10 3 -15z"/>
<path d="M1955 1780 c3 -5 8 -10 11 -10 2 0 4 5 4 10 0 6 -5 10 -11 10 -5 0
-7 -4 -4 -10z"/>
<path d="M1440 1622 c0 -7 -10 -13 -22 -13 -19 -1 -20 -2 -4 -6 20 -5 44 12
33 24 -4 3 -7 1 -7 -5z"/>
<path d="M65 930 c-3 -5 -1 -10 4 -10 6 0 11 5 11 10 0 6 -2 10 -4 10 -3 0 -8
-4 -11 -10z"/>
<path d="M21 914 c0 -11 3 -14 6 -6 3 7 2 16 -1 19 -3 4 -6 -2 -5 -13z"/>
<path d="M63 879 c1 -14 -4 -33 -12 -42 -7 -9 -11 -22 -9 -29 3 -8 11 -3 21
13 13 19 14 32 7 54 -9 28 -9 28 -7 4z"/>
<path d="M2 850 c0 -14 2 -19 5 -12 2 6 2 18 0 25 -3 6 -5 1 -5 -13z"/>
<path d="M114 801 c3 -5 15 -7 26 -4 28 7 25 13 -6 13 -14 0 -23 -4 -20 -9z"/>
<path d="M70 789 c0 -5 5 -7 10 -4 6 3 10 8 10 11 0 2 -4 4 -10 4 -5 0 -10 -5
-10 -11z"/>
<path d="M980 776 c0 -9 7 -16 16 -16 17 0 14 22 -4 28 -7 2 -12 -3 -12 -12z"/>
<path d="M95 760 l-20 -9 20 0 c11 0 27 4 35 9 13 9 13 10 0 9 -8 0 -24 -4
-35 -9z"/>
<path d="M1082 758 c6 -18 28 -21 28 -4 0 9 -7 16 -16 16 -9 0 -14 -5 -12 -12z"/>
<path d="M1205 760 c3 -5 13 -10 21 -10 8 0 14 5 14 10 0 6 -9 10 -21 10 -11
0 -17 -4 -14 -10z"/>
<path d="M46 751 c-4 -7 -5 -15 -2 -18 9 -9 19 4 14 18 -4 11 -6 11 -12 0z"/>
<path d="M198 743 c7 -3 16 -2 19 1 4 3 -2 6 -13 5 -11 0 -14 -3 -6 -6z"/>
<path d="M75 729 c-9 -14 -2 -20 14 -10 8 6 9 11 3 15 -6 3 -14 1 -17 -5z"/>
<path d="M946 733 c-10 -10 5 -23 25 -23 12 0 19 5 17 12 -4 12 -33 20 -42 11z"/>
<path d="M150 715 c7 -8 17 -15 22 -15 5 0 3 7 -6 15 -8 8 -18 15 -22 15 -3 0
-1 -7 6 -15z"/>
<path d="M225 710 c-3 -5 -1 -10 4 -10 6 0 11 5 11 10 0 6 -2 10 -4 10 -3 0
-8 -4 -11 -10z"/>
<path d="M107 689 c7 -7 15 -10 18 -7 3 3 -2 9 -12 12 -14 6 -15 5 -6 -5z"/>
<path d="M485 680 c-3 -5 -2 -10 4 -10 5 0 13 5 16 10 3 6 2 10 -4 10 -5 0
-13 -4 -16 -10z"/>
<path d="M685 680 c-3 -6 1 -7 9 -4 18 7 21 14 7 14 -6 0 -13 -4 -16 -10z"/>
<path d="M198 673 c7 -3 16 -2 19 1 4 3 -2 6 -13 5 -11 0 -14 -3 -6 -6z"/>
<path d="M690 640 c0 -5 5 -10 10 -10 6 0 10 5 10 10 0 6 -4 10 -10 10 -5 0
-10 -4 -10 -10z"/>
</g>
</svg>
